# xmcd
#
# Track frame offsets:
#	150
#	31056
#	57260
#	77667
#	103596
#	127215
#	184199
#	205992
#
# Disc length: 2978 seconds
#
# Revision: 3
# Processed by: cddbd v1.5.2PL0 Copyright (c) Steve Scherf et al.
# Submitted via: audiograbber 1.83.01
#
DISCID=6a0ba008
DTITLE=Tigran Hamasyan - Athmospheres CD1
DYEAR=2016
DGENRE=Jazz
TTITLE0=Traces I
TTITLE1=Tsirani Tsar
TTITLE2=Traces II
TTITLE3=Traces III
TTITLE4=Traces IV
TTITLE5=Traces V - Garun A
TTITLE6=Traces VI
TTITLE7=Garun A (Var.)
EXTD=YEAR: 2016
EXTT0=
EXTT1=
EXTT2=
EXTT3=
EXTT4=
EXTT5=
EXTT6=
EXTT7=
PLAYORDER=
